# xmcd
#
# Track frame offsets:
#	150
#	17398
#	37323
#	53522
#	74197
#	93474
#
# Disc length: 1423 seconds
#
# Revision: 1
# Processed by: cddbd v1.5.2PL0 Copyright (c) Steve Scherf et al.
# Submitted via: audiograbber 1.83.01
#
DISCID=4e058d06
DTITLE=Kitstone - Democrazy
DYEAR=2004
DGENRE=Pop
TTITLE0=Kitstone - Only when you leave
TTITLE1=Kitstone - Nobody knows
TTITLE2=Kitstone - King of fools
TTITLE3=Kitstone - Civelized
TTITLE4=Kitstone - Floating
TTITLE5=Kitstone - Two eggs
EXTD=
EXTT0=
EXTT1=
EXTT2=
EXTT3=
EXTT4=
EXTT5=
PLAYORDER=
